<svg width="120" height="120" viewBox="0 0 120 120" fill="none" xmlns="http://www.w3.org/2000/svg"><path d="m120.757 53.182.303.152.302 2.727.152 2.728v3.787l-.303 4.546-.454 3.03-.303.152-7.273.757-6.06.454-6.061.303-5.151.152h-10.91l-6.666-.455-7.727-.91-8.03-1.211-10-1.819-10.152-2.12L31.97 63.03l-4.848-.757-4.697-.455-8.333-.303h-3.485l-9.243.303H0v-1.666l1.06-.303L5 59.092l3.788-1.061 4.394-1.667 3.03-.757 3.03-.455 2.88-.303 2.727-.151h7.727l5.606.303 5.302.454 6.061.758 6.667.757 6.515.454 7.576.303h11.515l7.576-.303 6.06-.454 8.03-1.06 9.092-1.365z" fill="url(#a)"/><path d="m110.757 26.969.606.151 1.515 2.273 1.969 3.636 1.818 3.788 1.667 4.394.303 1.06-1.061.455-6.818 1.818-7.424 1.667-7.425 1.364-7.12 1.06-6.516.758-5.302.454H69.24l-7.424-.455-9.697-.757-13.94-1.363-2.272-.152h-8.333l-4.697.455-3.636.605-3.03.758-4.546 1.363-5.152 1.818-5.909 2.273H.302l.152-1.818 6.06-3.636 3.637-2.273 4.394-2.879 2.424-1.364 2.425-1.212 3.484-1.364 4.092-1.212 4.697-.91 3.939-.453 2.424-.152 32.576-.454 3.939-.303 5.605-.758 6.061-1.212 6.667-1.666 6.06-1.819 8.333-2.727 3.485-1.212z" fill="url(#b)"/><path d="m.456 68.03 12.727.605 6.06.606 10.759 1.515 13.03 2.121 7.272 1.364 12.727 1.97 18.03 2.424 18.182 2.272 11.06 1.061 7.121.454-.454 1.364-1.364 3.182-1.969 3.788-1.97 3.182-2.121 3.03-1.061 1.364-7.424-1.364-8.636-1.667-14.697-3.03-7.272-1.667-8.94-2.272-9.848-2.728-8.788-2.576-8.94-2.727-10.302-3.03-8.333-2.576-7.273-2.425-4.848-1.818-2.576-1.06-.152-1.365z" fill="url(#c)"/><path d="m89.24 7.12 2.425 1.212 3.333 2.12 2.576 1.97 1.97 1.515 1.515 1.364 1.212 1.06 1.667 1.667-.606.455-3.182 1.515-4.243 1.667-5.15 1.818L85.15 25.3l-3.939 1.212-4.697 1.06-6.818 1.062-6.363.605-5.91.303h-15l-5.453.303-5 .606-5.303 1.061-3.94 1.212-3.03 1.212-2.272 1.213-4.091 2.727L10 40.15l-3.03 2.12-2.728 1.97-2.273 1.515-.151-.303.757-2.424 2.121-2.273 1.364-1.363 1.06-1.213 7.728-7.727 1.212-1.06 2.121-1.97 2.576-1.818 3.182-1.818 3.485-1.516 4.545-1.515 4.243-1.06 4.091-.758 5.606-.606 8.636-.909 8.787-1.212 5.455-1.061 3.636-.91 4.545-1.363 3.788-1.515 3.636-1.667 3.788-1.97 1.06-.605" fill="url(#d)"/><path d="m1.97 76.06 1.97.757 4.242 1.97 5.455 2.424 5.909 2.728 5.91 2.576 6.211 2.576 6.97 2.727 5.605 2.121 6.97 2.576 6.818 2.425 9.697 3.333 6.363 2.121 7.576 2.273 6.667 1.818 7.12 1.666.304.303-2.273 1.515-3.03 1.818-4.091 2.121-3.94 1.667-5 1.667-1.514.151-5.303-2.121-4.243-1.818-4.394-1.969-4.546-2.121-6.818-3.334-2.878-1.515-3.788-1.969-3.333-1.819-4.092-2.272-3.636-2.121-3.484-1.97-8.334-5-3.636-2.272-3.787-2.424-4.697-3.182-2.576-1.818-3.182-2.425-.606-.606-.606-2.12z" fill="url(#e)"/><path d="M57.27 0h6.97l4.696.454 4.394.758 3.637.909.303.303-3.788 1.212-7.272 1.97-7.576 1.818-8.636 1.818-6.818 1.364-7.88 1.97-5.605 1.817-3.333 1.364-2.88 1.364-2.726 1.666-2.122 1.515-1.818 1.667-1.515 1.364L13.635 25l-1.061 1.212-1.818 1.818-1.061 1.212-1.97 2.121v-.454l1.213-2.121 2.12-3.182 1.364-1.818 1.97-2.425 1.515-1.666 1.06-1.213 2.425-2.424L20.605 15l2.12-1.819 2.88-2.121 2.727-1.818 3.636-2.121 3.94-1.97 4.242-1.666 3.636-1.213 3.636-.909 4.091-.757L55.15.15z" fill="url(#f)"/><path d="m6.972 88.939 1.212.91 2.425 1.969 1.667 1.364 1.97 1.666 1.666 1.364 1.97 1.667 2.12 1.818 1.515 1.363 1.213 1.061 1.97 1.667 2.12 1.666 3.182 2.425 5.152 3.636 2.878 1.97 6.364 4.242 3.03 1.97.303.303-1.363-.152-3.788-1.06-3.182-1.061-3.939-1.667-2.879-1.364-3.636-2.121-2.425-1.515-2.878-2.121-1.667-1.364-2.273-1.969-1.212-1.212-1.212-1.061-1.364-1.515L14.245 100l-1.667-2.121-1.515-1.97-1.97-3.03-1.515-2.576-.606-1.061z" fill="url(#g)"/><path d="m120.757 53.183.303.151.303 2.728.152 2.727v3.788l-.303 4.545-.455 3.03-.303.152-7.272.757-6.061.455-6.06.303-5.152.151H85l-6.666-.454-7.727-.91-8.03-1.212-10-1.818-10.151-2.12L31.97 63.03l-4.848-.758-4.697-.454-8.333-.303h-3.485l-9.243.303H0v-1.667l1.06-.303L5 59.092l3.788-1.06 4.394-1.667 3.03-.758 3.03-.454 2.88-.303 2.727-.151h7.727l5.606.303 5.303.454 6.06.757 6.667.757 6.515.455 7.576.303h11.515l7.576-.303 6.06-.455 8.031-1.06 9.091-1.364z" fill="url(#h)"/><path d="m110.757 26.969.606.151 1.515 2.273 1.97 3.636 1.818 3.788 1.667 4.394.303 1.06-1.061.455-6.818 1.818-7.425 1.667-7.424 1.364-7.121 1.06-6.515.758-5.303.454h-7.727l-7.425-.454-9.697-.758-13.94-1.363-2.272-.152h-8.333l-4.697.455-3.636.605-3.03.758-4.546 1.363-5.152 1.819-5.909 2.272H.302l.152-1.818 6.06-3.636 3.637-2.273 4.394-2.879 2.424-1.363 2.425-1.213 3.485-1.363 4.09-1.213 4.698-.91 3.939-.453 2.424-.152 32.576-.454 3.94-.303 5.605-.758 6.06-1.212 6.667-1.666 6.06-1.819 8.334-2.727 3.485-1.212z" fill="url(#i)"/><path d="m.456 68.03 12.727.605 6.06.606 10.759 1.516 13.03 2.12 7.272 1.364 12.728 1.97 18.03 2.424 18.181 2.273 11.061 1.06 7.121.455-.454 1.364-1.364 3.182-1.97 3.787-1.969 3.182-2.121 3.03-1.061 1.364-7.424-1.363-8.637-1.667-14.696-3.03-7.273-1.667-8.94-2.273-9.848-2.727-8.788-2.576-8.94-2.728-10.302-3.03-8.333-2.576-7.273-2.424-4.848-1.819-2.576-1.06-.152-1.364z" fill="url(#j)"/><path d="m89.241 7.12 2.425 1.212 3.333 2.121 2.576 1.97 1.97 1.515 1.515 1.364 1.212 1.06 1.667 1.667-.606.454-3.182 1.515-4.243 1.667-5.151 1.818-5.606 1.818-3.939 1.213-4.697 1.06-6.818 1.061-6.364.606-5.909.303h-15l-5.454.303-5 .606-5.303 1.06-3.939 1.213-3.03 1.212-2.273 1.212-4.09 2.728L10 40.15l-3.03 2.121-2.728 1.97-2.272 1.515-.152-.303.757-2.424 2.121-2.273 1.364-1.364 1.06-1.212 7.728-7.727 1.213-1.061 2.12-1.97 2.577-1.818 3.181-1.818 3.485-1.515 4.546-1.515 4.242-1.061 4.091-.757 5.606-.606 8.636-.91 8.788-1.212 5.454-1.06 3.636-.91 4.546-1.364 3.788-1.515 3.636-1.666 3.787-1.97 1.061-.606" fill="url(#k)"/><path d="m1.97 76.06 1.97.758 4.242 1.97 5.455 2.424 5.909 2.727 5.91 2.576 6.212 2.576 6.969 2.728 5.606 2.12 6.97 2.577 6.817 2.424 9.697 3.334 6.364 2.121 7.576 2.272 6.666 1.818 7.121 1.667.303.303-2.272 1.515-3.03 1.818-4.092 2.121-3.939 1.667-5 1.666-1.515.152-5.303-2.121-4.243-1.818-4.394-1.97-4.545-2.121-6.818-3.333-2.88-1.515-3.787-1.97-3.333-1.818-4.091-2.272-3.636-2.121-3.485-1.97-8.333-5-3.637-2.272-3.787-2.425-4.697-3.182-2.576-1.818-3.182-2.424-.606-.606-.606-2.121v-.456" fill="url(#l)"/><path d="M57.27 0h6.97l4.697.454 4.394.758 3.636.909.303.303-3.788 1.212-7.272 1.97-7.576 1.818-8.636 1.818-6.818 1.364-7.879 1.97-5.606 1.817-3.333 1.364-2.879 1.364-2.727 1.666-2.121 1.516-1.819 1.666-1.515 1.364L13.635 25l-1.061 1.212-1.818 1.818-1.061 1.212-1.97 2.121v-.454l1.213-2.121 2.12-3.182 1.364-1.818 1.97-2.425 1.515-1.666 1.06-1.212 2.425-2.425L20.606 15l2.12-1.819 2.88-2.12 2.727-1.82 3.636-2.12 3.94-1.97 4.242-1.666 3.636-1.213 3.636-.909 4.092-.757L55.15.15z" fill="url(#m)"/><path d="m6.972 88.939 1.213.91 2.424 1.969 1.667 1.364 1.97 1.666 1.666 1.364 1.97 1.667 2.12 1.818 1.516 1.363 1.212 1.061 1.97 1.667 2.12 1.667 3.183 2.424 5.15 3.636 2.88 1.97 6.364 4.243 3.03 1.969.303.303-1.364-.151-3.788-1.061-3.181-1.061-3.94-1.667-2.879-1.363-3.636-2.121-2.424-1.516-2.88-2.121-1.666-1.363-2.272-1.97-1.212-1.212-1.213-1.061-1.363-1.515L14.245 100l-1.667-2.121-1.515-1.97-1.97-3.03-1.515-2.576-.606-1.061z" fill="url(#n)"/><defs><linearGradient id="a" x1="22.93" y1="54.453" x2="25.749" y2="79.326" gradientUnits="userSpaceOnUse"><stop stop-color="#EF9B63"/><stop offset="1" stop-color="#EB7041"/></linearGradient><linearGradient id="b" x1="22.632" y1="28.824" x2="28.704" y2="64.565" gradientUnits="userSpaceOnUse"><stop stop-color="#EF9B63"/><stop offset="1" stop-color="#EB7041"/></linearGradient><linearGradient id="c" x1="22.528" y1="70.078" x2="29.977" y2="109.298" gradientUnits="userSpaceOnUse"><stop stop-color="#EF9B63"/><stop offset="1" stop-color="#EB7041"/></linearGradient><linearGradient id="d" x1="21.089" y1="9.733" x2="34.432" y2="57.84" gradientUnits="userSpaceOnUse"><stop stop-color="#EF9B63"/><stop offset="1" stop-color="#EB7041"/></linearGradient><linearGradient id="e" x1="19.668" y1="78.993" x2="37.324" y2="131.117" gradientUnits="userSpaceOnUse"><stop stop-color="#EF9B63"/><stop offset="1" stop-color="#EB7041"/></linearGradient><linearGradient id="f" x1="20.848" y1="2.122" x2="33.382" y2="40.033" gradientUnits="userSpaceOnUse"><stop stop-color="#EF9B63"/><stop offset="1" stop-color="#EB7041"/></linearGradient><linearGradient id="g" x1="14.663" y1="91.041" x2="32.397" y2="122.782" gradientUnits="userSpaceOnUse"><stop stop-color="#EF9B63"/><stop offset="1" stop-color="#EB7041"/></linearGradient><linearGradient id="h" x1="22.93" y1="54.454" x2="25.749" y2="79.327" gradientUnits="userSpaceOnUse"><stop stop-color="#E36B4C"/><stop offset="1" stop-color="#E25F3F"/></linearGradient><linearGradient id="i" x1="22.632" y1="28.824" x2="28.704" y2="64.565" gradientUnits="userSpaceOnUse"><stop stop-color="#E36B4C"/><stop offset="1" stop-color="#E25F3F"/></linearGradient><linearGradient id="j" x1="22.528" y1="70.079" x2="29.977" y2="109.299" gradientUnits="userSpaceOnUse"><stop stop-color="#E36B4C"/><stop offset="1" stop-color="#E25F3F"/></linearGradient><linearGradient id="k" x1="21.089" y1="9.734" x2="34.433" y2="57.841" gradientUnits="userSpaceOnUse"><stop stop-color="#E36B4C"/><stop offset="1" stop-color="#E25F3F"/></linearGradient><linearGradient id="l" x1="19.668" y1="78.993" x2="37.324" y2="131.118" gradientUnits="userSpaceOnUse"><stop stop-color="#E36B4C"/><stop offset="1" stop-color="#E25F3F"/></linearGradient><linearGradient id="m" x1="20.848" y1="2.122" x2="33.383" y2="40.033" gradientUnits="userSpaceOnUse"><stop stop-color="#E36B4C"/><stop offset="1" stop-color="#E25F3F"/></linearGradient><linearGradient id="n" x1="14.663" y1="91.041" x2="32.397" y2="122.782" gradientUnits="userSpaceOnUse"><stop stop-color="#E36B4C"/><stop offset="1" stop-color="#E25F3F"/></linearGradient></defs></svg>