<svg width="477" height="511" viewBox="0 0 477 511" fill="none" xmlns="http://www.w3.org/2000/svg">
<path d="M469.284 360.671L414.232 317.74C404.989 310.532 391.536 313.519 386.095 323.914C372.584 349.693 351.41 370.933 327.15 385.424L269.453 327.568C266.349 324.456 262.139 322.704 257.747 322.704C253.354 322.704 249.144 324.456 246.041 327.568L184.658 389.12C136.928 363.767 104.331 313.444 104.331 255.613C104.331 172.361 171.879 104.627 254.901 104.627C305.111 104.627 353.215 126.552 385.013 179.244C390.712 188.688 403.25 191.199 412.127 184.675L465.548 145.415C473.477 139.591 475.582 128.604 470.357 120.253C424.016 46.0788 342.982 0.694824 254.901 0.694824C114.722 0.694824 0.684082 115.047 0.684082 255.613C0.684082 396.178 114.722 510.53 254.901 510.53C302.823 510.53 349.513 497.074 389.939 471.629C424.49 449.871 453.26 420.179 473.91 385.124C478.718 376.965 476.755 366.486 469.292 360.671H469.284ZM218.511 402.118L257.738 362.782L294.919 400.065C281.674 404.32 268.13 406.598 254.901 406.598C242.355 406.598 230.175 405.038 218.511 402.126V402.118ZM253.753 216.527C253.695 217.77 253.687 234.289 294.969 262.504C325.769 283.56 311.342 325.507 305.036 339.298C302.124 330.713 297.107 319.033 288.297 306.836C277.706 292.162 265.942 282.726 257.73 277.145C249.094 282.451 234.926 292.779 223.561 310.532C216.681 321.286 212.895 331.522 210.732 339.298L210.707 339.256C198.144 305.385 202.595 288.466 209.085 279.272C214.176 272.056 223.428 262.086 223.428 262.086C231.506 254.027 240.034 246.185 248.237 230.243C253.279 220.44 253.72 217.028 253.753 216.519V216.527Z" fill="white"/>
<path d="M223.304 262.261C223.304 262.261 214.031 272.223 208.915 279.434C202.405 288.62 197.948 305.526 210.542 339.371C138.748 276.6 212.679 212.536 211.202 217.413C205.71 235.544 223.296 262.261 223.296 262.261H223.304ZM240.815 242.53C243.327 238.97 245.797 234.977 248.159 230.401C253.685 219.705 253.701 216.612 253.701 216.612C253.701 216.612 251.957 233.302 295.04 262.637C325.938 283.677 311.466 325.592 305.139 339.371C305.139 339.371 341.605 316.147 336.43 276.916C330.212 229.725 304.647 233.985 285.651 199.031C267.932 166.429 298.195 140.311 298.195 140.311C298.195 140.311 257.682 138.136 239.137 180.675C219.59 225.499 240.806 242.538 240.806 242.538L240.815 242.53Z" fill="#FF6D01"/>
</svg>
