<svg width="1409" height="1409" viewBox="0 0 1409 1409" fill="none" xmlns="http://www.w3.org/2000/svg">
<path
style="fill: #F2EBFF;"
 fill-rule="evenodd" clip-rule="evenodd" d="M1409.49 704.5C1409.49 1093.58 1093.97 1409 704.746 1409C315.526 1409 0 1093.58 0 704.5C0 315.415 315.526 0 704.746 0C1093.97 0 1409.49 315.415 1409.49 704.5ZM733.064 1193.3V523.065C733.064 506.812 746.245 493.636 762.504 493.636H1130.02C1167.55 493.636 1190.75 534.531 1171.5 566.732L787.773 1208.41C772.439 1234.05 733.064 1223.18 733.064 1193.3ZM676.426 885.18V214.941C676.426 185.067 637.051 174.199 621.717 199.84L237.993 841.514C218.737 873.714 241.944 914.61 279.472 914.61H646.986C663.245 914.61 676.426 901.434 676.426 885.18Z" fill="#F2EBFF"/>
</svg>
